# xmcd CD database file
#
# Track frame offsets:
#	182
#	14607
#	28557
#	43350
#	59022
#	73162
#	86567
#	101587
#	115765
#	128727
#	142915
#	158552
#	172562
#	183527
#
# Disc length: 2612 seconds
#
# Revision: 2
# Processed by: cddbd v1.5PL3 Copyright (c) Steve Scherf et al.
# Submitted via: CDex 1.51
#
DISCID=ba0a320e
DTITLE=Various Artist - Don't Leave Me Here - The Blues of Texas-Arkansas and Lousiana 1927-32
DYEAR=1991
DGENRE=Blues
TTITLE0=Kentucky Blues - Little Hat Jones  (1930)
TTITLE1=Dreaming Blues - Willie Reed  (1928)
TTITLE2=98 Degree Blues - Texas Alexander  (1929)
TTITLE3=Don't Leave Me Here - Henry Thomas  (1929)
TTITLE4=Bye Bye, Baby Blues - Little Hat Jones  (1930)
TTITLE5=Hot Dogs - Blind Lemon Jefferson  (1927)
TTITLE6=The Gone Dead Train - King Solomon Hill  (1932)
TTITLE7=Lovin' Babe - Henry Thomas  (1929)
TTITLE8=Cryin' for You - Sammy Hill  (1929)
TTITLE9=Pennsylvania Women - Six Cylinder Smith  (1930)
TTITLE10=Tell Me, Baby - King Solomon Hill  (1932)
TTITLE11=Needin' My Women - Sammy Hill  (1929)
TTITLE12=Awful Fix - Buddy Boy Hawkins  (1927)
TTITLE13=Oh, Oh, Lonesome - Six Cylinder Smith  (1930)
EXTD=\n\n YEAR: 1991
EXTT0=
EXTT1=
EXTT2=
EXTT3=
EXTT4=
EXTT5=
EXTT6=
EXTT7=
EXTT8=
EXTT9=
EXTT10=
EXTT11=
EXTT12=
EXTT13=
PLAYORDER=
